<svg id="Layer_1" data-name="Layer 1" xmlns="http://www.w3.org/2000/svg" viewBox="0 0 500 800"><defs><style>.cls-1{fill:#231f20;}</style></defs><title>logo-font-05</title><path class="cls-1" d="M177.24,769.61v6.26H82.91v-6.26H97V-67.15h22.71V755.63h43.38v14Z"/><path class="cls-1" d="M287.44,769.61v6.26H167.2v-6.26h32.46a50.34,50.34,0,0,1-18.85-18.78,51.91,51.91,0,0,1-6.92-26.5q0-22.41,15.43-37.49t38-15.06q22.56,0,38,15.06t15.43,37.49A51.75,51.75,0,0,1,255,769.61ZM257.6,724.4a33.32,33.32,0,0,0-8.73-23.22,28.82,28.82,0,0,0-43,0,35.15,35.15,0,0,0,0,46.37,28.94,28.94,0,0,0,43,0A33,33,0,0,0,257.6,724.4Z"/><path class="cls-1" d="M435.79,769.61v6.26h-52l-22.28-70.75-22.13,70.75h-52v-6.26h32.9L287,674.11h24.6l20.09,58.52,18.05-58.52h23.73l17.91,58.52,20.23-58.52h24.6l-33.33,95.5Z"/></svg>