<svg id="Layer_1" data-name="Layer 1" xmlns="http://www.w3.org/2000/svg" viewBox="0 0 500 1000"><defs><style>.cls-1{fill:#231f20;}</style></defs><title>low-logo</title><path class="cls-1" d="M73.35,937.69h73.81V966H37V32.85h36.4Z"/><path class="cls-1" d="M268.49,935.67q0,15.17-8.59,23.76T236.13,968H189.62q-15.17,0-23.76-8.59t-8.59-23.76V889.15q0-15.17,8.59-23.76t23.76-8.59h46.51q15.17,0,23.77,8.59t8.59,23.76ZM233.1,892.19q0-8.09-8.09-8.09H200.74q-8.09,0-8.08,8.09v40.44q0,8.1,8.08,8.09H225q8.09,0,8.09-8.09Z"/><path class="cls-1" d="M397.91,923.53l18.2-64.71h38.42L421.17,966H383.75l-20.22-64.71L343.31,966H305.9L272.53,858.82H311l18.2,64.71,18.2-64.71h32.36Z"/></svg>