<svg id="Layer_1" data-name="Layer 1" xmlns="http://www.w3.org/2000/svg" viewBox="0 0 500 1000"><defs><style>.cls-1{fill:#231f20;}</style></defs><title>low-logo</title><path class="cls-1" d="M47.81,32.85h5.94V966.33H47.81Zm11.87,0h5.94V966.33H59.68Zm11.87,0h5.94V966.33H71.55Zm11.87,0h5.93V936.66l101.15,1.67,2.83,4.27h-104v5.93l99,1.64,5,4.3h-104v5.93l97.82,1.93,6.16,4H83.42Z"/><path class="cls-1" d="M152,932.33a64.48,64.48,0,0,1,0-50.69,64.45,64.45,0,0,1,34.74-34.74,64.48,64.48,0,0,1,50.69,0,64.43,64.43,0,0,1,34.75,34.74,64.48,64.48,0,0,1,0,50.69,64.4,64.4,0,0,1-34.75,34.75,64.48,64.48,0,0,1-50.69,0A64.43,64.43,0,0,1,152,932.33ZM157.44,884a58.82,58.82,0,0,0,0,46.08,58.3,58.3,0,0,0,31.61,31.61,58.94,58.94,0,0,0,46.08,0A58.39,58.39,0,0,0,266.74,930a58.94,58.94,0,0,0,0-46.08,58.3,58.3,0,0,0-31.61-31.61,58.82,58.82,0,0,0-46.08,0A58.22,58.22,0,0,0,157.44,884Zm5.48,43.81a52.88,52.88,0,0,1,0-41.54,52.47,52.47,0,0,1,28.4-28.4,53,53,0,0,1,41.54,0,52.49,52.49,0,0,1,28.39,28.4,52.88,52.88,0,0,1,0,41.54,52.49,52.49,0,0,1-28.39,28.4,53,53,0,0,1-41.54,0,52.47,52.47,0,0,1-28.4-28.4Zm5.44-39.19a47.11,47.11,0,0,0,0,36.84,46.74,46.74,0,0,0,25.31,25.3,47,47,0,0,0,36.84,0,46.68,46.68,0,0,0,25.3-25.3,47.11,47.11,0,0,0,0-36.84,46.74,46.74,0,0,0-25.3-25.31,47.11,47.11,0,0,0-36.84,0,46.81,46.81,0,0,0-25.31,25.31Zm7.75,39.27a41.83,41.83,0,0,1,0-41.71A41.22,41.22,0,0,1,191.23,871a41.89,41.89,0,0,1,41.71,0,41.25,41.25,0,0,1,15.13,15.12,41.89,41.89,0,0,1,0,41.71A41.2,41.2,0,0,1,232.94,943a41.89,41.89,0,0,1-41.71,0A41.17,41.17,0,0,1,176.11,927.84Zm10.8-46a35.58,35.58,0,1,0,50.36,50.28,35.58,35.58,0,1,0-50.36-50.28Zm4.2,46.12a29.67,29.67,0,1,1,41.95-42,29.67,29.67,0,1,1-41.95,42Zm4.2-37.76a23.7,23.7,0,1,0,16.78-7A22.9,22.9,0,0,0,195.31,890.21Z"/><path class="cls-1" d="M407.72,928.13q1.69.12,4.17.12c1.65,0,3,0,4.16-.12a16.39,16.39,0,0,0,3.5-.66,8.05,8.05,0,0,0,2.89-1.44,6.78,6.78,0,0,0,1.77-2.6,10.54,10.54,0,0,0,.7-4.08V847.64h5.93v71.71q0,14.83-18.95,14.84-9.57,0-14.18-3.63a39.06,39.06,0,0,1-1.57,5.69q6.27,3.87,15.75,3.87,11,0,18-5.15t6.92-15.62V847.64h5.93v71.71q0,12.95-8.69,19.83t-22.13,6.88q-10.47,0-18-4.29a35.25,35.25,0,0,1-2.89,5A41,41,0,0,0,411.89,952a46.26,46.26,0,0,0,14.3-2.14,36.25,36.25,0,0,0,11.66-6.18,28,28,0,0,0,7.91-10.31,33,33,0,0,0,2.89-14V847.64h5.93v71.71a37.08,37.08,0,0,1-5.81,20.77,36.27,36.27,0,0,1-15.41,13.36,50.56,50.56,0,0,1-21.47,4.45,46.42,46.42,0,0,1-24.4-6.35,45.65,45.65,0,0,1-4.2,4.29q12.27,8,28.6,8a55.66,55.66,0,0,0,24.4-5.27,42.46,42.46,0,0,0,24.23-39.24V847.64h5.93v71.71a50.24,50.24,0,0,1-4.32,20.94,46.2,46.2,0,0,1-11.71,16,53.1,53.1,0,0,1-17.35,10,62.86,62.86,0,0,1-21.18,3.55q-19.62,0-33.55-10.06-14.43,10.05-34,10.06a62.88,62.88,0,0,1-21.19-3.55,53.1,53.1,0,0,1-17.35-10,46,46,0,0,1-11.7-16,50.08,50.08,0,0,1-4.33-20.94V847.64h5.94v71.71A44.67,44.67,0,0,0,299.5,938a39.48,39.48,0,0,0,10.43,14.1,48,48,0,0,0,15.45,8.69,57,57,0,0,0,18.92,3.09,50.92,50.92,0,0,0,24.31-6,46.75,46.75,0,0,0,17.77-16.24,40.7,40.7,0,0,0,6.55-22.3V847.64h5.93v71.71a10.73,10.73,0,0,0,.7,4.08,6.68,6.68,0,0,0,1.78,2.6,7.92,7.92,0,0,0,2.88,1.44A16.39,16.39,0,0,0,407.72,928.13ZM387,847.64v71.71a37.08,37.08,0,0,1-5.81,20.77,36.27,36.27,0,0,1-15.41,13.36,54,54,0,0,1-42.94,0,36.3,36.3,0,0,1-15.42-13.36,37.16,37.16,0,0,1-5.81-20.77V847.64h5.94v71.71a33.11,33.11,0,0,0,2.88,14,28,28,0,0,0,7.91,10.31A36.19,36.19,0,0,0,330,949.85a48.85,48.85,0,0,0,28.6,0,36.25,36.25,0,0,0,11.66-6.18,28,28,0,0,0,7.91-10.31,33,33,0,0,0,2.89-14V847.64Zm-11.86,0v71.71q0,12.95-8.7,19.83t-22.13,6.88q-13.44,0-22.13-6.88t-8.7-19.83V847.64h5.94v71.71q0,10.47,6.92,15.62t18,5.15q11,0,18-5.15t6.92-15.62V847.64Zm-11.87,0v71.71q0,14.83-19,14.84t-19-14.84V847.64h5.93v71.71a10.73,10.73,0,0,0,.7,4.08,6.68,6.68,0,0,0,1.78,2.6,7.92,7.92,0,0,0,2.88,1.44,16.39,16.39,0,0,0,3.5.66q1.69.12,4.17.12c1.65,0,3,0,4.16-.12a16.28,16.28,0,0,0,3.5-.66,8.05,8.05,0,0,0,2.89-1.44,6.78,6.78,0,0,0,1.77-2.6,10.54,10.54,0,0,0,.7-4.08V847.64Z"/><polygon class="cls-1" points="200.82 927.91 87.13 926.84 87.13 932.18 204 932.69 200.82 927.91"/></svg>