<svg id="Layer_1" data-name="Layer 1" xmlns="http://www.w3.org/2000/svg" viewBox="0 0 500 1000"><defs><style>.cls-1{fill:#231f20;}</style></defs><title>low-logo</title><path class="cls-1" d="M26.48,32.85H80v933h57.94V975H26.48Z"/><path class="cls-1" d="M158.37,969.53q-16.47-6.25-26-18.53t-9.53-29.5q0-17.07,9.61-29.27t26-18.53q16.4-6.32,36.82-6.32t36.67,6.32q16.4,6.33,25.92,18.53t9.53,29.27q0,17.24-9.53,29.5t-25.92,18.53q-16.38,6.26-36.67,6.25T158.37,969.53ZM204.72,961q2.59-4.43,3.5-15.7.47-6,.46-23.79T207.92,896q-.46-9.15-3.35-13.87-3.06-5.8-9.31-5.8a10.33,10.33,0,0,0-9.6,5.8q-2.59,4.56-3.35,13.87-.62,7.94-.61,25.46,0,19.83.45,23.79.61,10.51,3.36,15.7a10.44,10.44,0,0,0,9.75,5.79A10,10,0,0,0,204.72,961Z"/><path class="cls-1" d="M257,868.29h51.84l35.68,80.65,30-80.65h22.87l35.06,78.83,29.28-78.83h11.74L433.27,975h-46.2L365,925l-18.91,50H304.28Z"/></svg>