<svg id="Layer_1" data-name="Layer 1" xmlns="http://www.w3.org/2000/svg" viewBox="0 0 500 1000"><defs><style>.cls-1{fill:#231f20;}</style></defs><title>low-logo</title><path class="cls-1" d="M89.44,965V935.85h7.78v-874H89.44v-29h48.45v903h7.78V965Z"/><path class="cls-1" d="M164.76,954.15Q150.62,941,150.62,915.69t14.14-38.45q14.15-13.17,39.25-13.18,25.47,0,39.43,13.35t14,38.28q0,25.29-14.14,38.46T204,967.33Q178.92,967.33,164.76,954.15Zm47-21c1.7-1.82,2.56-4.68,2.56-8.57V906.85c0-3.89-.86-6.74-2.56-8.57s-4.28-2.74-7.7-2.74-6,.91-7.69,2.74-2.56,4.68-2.56,8.57v17.69q0,5.84,2.56,8.57t7.69,2.74Q209.14,935.85,211.71,933.11Z"/><path class="cls-1" d="M292.42,964.85l-23.34-69.31h-7.43v-29h54.64v29h-7.43l6.37,27.58H317l12.91-56.58h32.53l12.91,56.58h1.76l6.19-27.58h-7.42v-29h51.27v29h-7.42l-22.46,69.31h-43l-9.73-49.16h-1.77l-9.72,49.16Z"/></svg>