<svg id="Layer_1" data-name="Layer 1" xmlns="http://www.w3.org/2000/svg" viewBox="0 0 500 3000"><defs><style>.cls-1{fill:#231f20;}</style></defs><title>low-logo</title><path class="cls-1" d="M177.24,2974.2v6.26H82.91v-6.26H97V-23h22.71V2960.23h43.38v14Z"/><path class="cls-1" d="M287.44,2974.2v6.26H167.2v-6.26h32.46a50.34,50.34,0,0,1-18.85-18.78,51.88,51.88,0,0,1-6.92-26.49q0-22.42,15.43-37.49t38-15.07q22.56,0,38,15.07t15.43,37.49A51.75,51.75,0,0,1,255,2974.2ZM257.6,2929a33.32,33.32,0,0,0-8.73-23.22,28.8,28.8,0,0,0-43,0,35.15,35.15,0,0,0,0,46.37,29,29,0,0,0,43,0A33,33,0,0,0,257.6,2929Z"/><path class="cls-1" d="M435.79,2974.2v6.26h-52l-22.28-70.75-22.13,70.75h-52v-6.26h32.9L287,2878.7h24.6l20.09,58.53,18.05-58.53h23.73l17.91,58.53,20.23-58.53h24.6l-33.33,95.5Z"/></svg>