<svg id="Layer_1" data-name="Layer 1" xmlns="http://www.w3.org/2000/svg" viewBox="0 0 500 1000"><defs><style>.cls-1{fill:#231f20;}</style></defs><title>low-logo</title><path class="cls-1" d="M97.89,966H52V32.85H97.89Z"/><path class="cls-1" d="M179.58,969.6a140.87,140.87,0,0,1-23.49-1.66,71.15,71.15,0,0,1-16-4.43,30.4,30.4,0,0,1-9.93-6.47,25.86,25.86,0,0,1-7.48-15.73q-.4-4.11-.41-7.8V878.12q0-3.69.41-7.8a27,27,0,0,1,2.17-8.12,25.83,25.83,0,0,1,5.31-7.66,30.83,30.83,0,0,1,9.93-6.42,70.62,70.62,0,0,1,16-4.43A140.87,140.87,0,0,1,179.58,842a138.57,138.57,0,0,1,23.31,1.66,68.18,68.18,0,0,1,15.79,4.43,30,30,0,0,1,9.69,6.42,25.08,25.08,0,0,1,5.12,7.66,26.6,26.6,0,0,1,2,8.12q.32,4.11.32,7.8v55.39q0,3.69-.32,7.8a26.09,26.09,0,0,1-2,8.07,25.81,25.81,0,0,1-5.12,7.66,29.56,29.56,0,0,1-9.69,6.47,68.68,68.68,0,0,1-15.79,4.43A138.57,138.57,0,0,1,179.58,969.6Zm-11.44-25.29h21.78v-77H168.14Z"/><path class="cls-1" d="M339.28,897.78,331.89,966H273.46l-19-120h45.69l7.11,81.23L317.31,846H361.8l9.88,81.23,7.2-81.23h45.79l-19,120h-58.8Z"/></svg>